<mxfile host="app.diagrams.net" agent="Mozilla/5.0 (Windows NT 10.0; Win64; x64) AppleWebKit/537.36 (KHTML, like Gecko) Chrome/134.0.0.0 Safari/537.36 Edg/134.0.0.0" version="26.1.1">
  <diagram name="Страница — 1" id="yUnetwLY6hC_SOKDKd0_">
    <mxGraphModel dx="1683" dy="452" grid="1" gridSize="10" guides="1" tooltips="1" connect="1" arrows="1" fold="1" page="1" pageScale="1" pageWidth="827" pageHeight="1169" math="0" shadow="0">
      <root>
        <mxCell id="0" />
        <mxCell id="1" parent="0" />
        <mxCell id="CQ37rXH5Fs0ZW7W6_GFj-6" style="edgeStyle=orthogonalEdgeStyle;rounded=0;orthogonalLoop=1;jettySize=auto;html=1;entryX=0.5;entryY=0;entryDx=0;entryDy=0;" edge="1" parent="1" source="CQ37rXH5Fs0ZW7W6_GFj-2" target="CQ37rXH5Fs0ZW7W6_GFj-3">
          <mxGeometry relative="1" as="geometry" />
        </mxCell>
        <mxCell id="CQ37rXH5Fs0ZW7W6_GFj-2" value="Model" style="rounded=0;whiteSpace=wrap;html=1;" vertex="1" parent="1">
          <mxGeometry x="200" y="180" width="110" height="40" as="geometry" />
        </mxCell>
        <mxCell id="CQ37rXH5Fs0ZW7W6_GFj-9" style="edgeStyle=orthogonalEdgeStyle;rounded=0;orthogonalLoop=1;jettySize=auto;html=1;entryX=0;entryY=0.5;entryDx=0;entryDy=0;" edge="1" parent="1" source="CQ37rXH5Fs0ZW7W6_GFj-3" target="CQ37rXH5Fs0ZW7W6_GFj-5">
          <mxGeometry relative="1" as="geometry" />
        </mxCell>
        <mxCell id="CQ37rXH5Fs0ZW7W6_GFj-3" value="View" style="rounded=0;whiteSpace=wrap;html=1;" vertex="1" parent="1">
          <mxGeometry x="60" y="270" width="120" height="60" as="geometry" />
        </mxCell>
        <mxCell id="CQ37rXH5Fs0ZW7W6_GFj-4" value="Controller" style="rounded=0;whiteSpace=wrap;html=1;" vertex="1" parent="1">
          <mxGeometry x="330" y="270" width="120" height="60" as="geometry" />
        </mxCell>
        <mxCell id="CQ37rXH5Fs0ZW7W6_GFj-8" style="edgeStyle=orthogonalEdgeStyle;rounded=0;orthogonalLoop=1;jettySize=auto;html=1;entryX=0.5;entryY=1;entryDx=0;entryDy=0;" edge="1" parent="1" source="CQ37rXH5Fs0ZW7W6_GFj-5" target="CQ37rXH5Fs0ZW7W6_GFj-4">
          <mxGeometry relative="1" as="geometry" />
        </mxCell>
        <mxCell id="CQ37rXH5Fs0ZW7W6_GFj-5" value="USER" style="ellipse;whiteSpace=wrap;html=1;" vertex="1" parent="1">
          <mxGeometry x="200" y="410" width="120" height="80" as="geometry" />
        </mxCell>
        <mxCell id="CQ37rXH5Fs0ZW7W6_GFj-7" style="edgeStyle=orthogonalEdgeStyle;rounded=0;orthogonalLoop=1;jettySize=auto;html=1;entryX=0.909;entryY=0.9;entryDx=0;entryDy=0;entryPerimeter=0;" edge="1" parent="1" source="CQ37rXH5Fs0ZW7W6_GFj-4" target="CQ37rXH5Fs0ZW7W6_GFj-2">
          <mxGeometry relative="1" as="geometry" />
        </mxCell>
        <mxCell id="CQ37rXH5Fs0ZW7W6_GFj-10" value="ввод&lt;div&gt;данных&lt;/div&gt;&lt;div&gt;&lt;br&gt;&lt;/div&gt;" style="text;html=1;align=center;verticalAlign=middle;resizable=0;points=[];autosize=1;strokeColor=none;fillColor=none;" vertex="1" parent="1">
          <mxGeometry x="320" y="350" width="70" height="60" as="geometry" />
        </mxCell>
        <mxCell id="CQ37rXH5Fs0ZW7W6_GFj-11" value="передача данных ы модель&lt;div&gt;&lt;br&gt;&lt;/div&gt;" style="text;html=1;align=center;verticalAlign=middle;resizable=0;points=[];autosize=1;strokeColor=none;fillColor=none;" vertex="1" parent="1">
          <mxGeometry x="300" y="220" width="180" height="40" as="geometry" />
        </mxCell>
        <mxCell id="CQ37rXH5Fs0ZW7W6_GFj-12" value="модель изменяет данные&amp;nbsp;" style="text;html=1;align=center;verticalAlign=middle;resizable=0;points=[];autosize=1;strokeColor=none;fillColor=none;" vertex="1" parent="1">
          <mxGeometry x="35" y="168" width="170" height="30" as="geometry" />
        </mxCell>
        <mxCell id="CQ37rXH5Fs0ZW7W6_GFj-13" value="возвращает визуализированный ответ&lt;div&gt;пользователю&lt;/div&gt;&lt;div&gt;&lt;br&gt;&lt;/div&gt;" style="text;html=1;align=center;verticalAlign=middle;resizable=0;points=[];autosize=1;strokeColor=none;fillColor=none;" vertex="1" parent="1">
          <mxGeometry x="-30" y="340" width="240" height="60" as="geometry" />
        </mxCell>
      </root>
    </mxGraphModel>
  </diagram>
</mxfile>
